<svg width="80" height="29" viewBox="0 0 80 29" fill="none" xmlns="http://www.w3.org/2000/svg">
<path d="M21.52 26.8C19.8933 27.8133 17.5467 28.32 14.48 28.32C10.5333 28.32 7.22667 27.0533 4.56 24.52C1.92 21.96 0.6 18.6533 0.6 14.6C0.6 10.4933 1.88 7.14667 4.44 4.56C7.02667 1.97333 10.3867 0.679999 14.52 0.679999C17.56 0.679999 19.8933 1.18667 21.52 2.2V8.12C19.52 6.89333 17.2933 6.28 14.84 6.28C12.68 6.28 10.8667 7.04 9.4 8.56C7.93333 10.0533 7.2 12.0667 7.2 14.6C7.2 17.08 7.93333 19.0533 9.4 20.52C10.8667 21.96 12.76 22.68 15.08 22.68C17.5867 22.68 19.7333 22.04 21.52 20.76V26.8ZM30.6913 28H24.5313L26.8513 1.04H33.6113L37.3713 10.8C38.0113 12.4267 38.5579 13.92 39.0113 15.28C39.4646 16.64 39.7579 17.6 39.8913 18.16L40.0913 18.96C40.5179 17.2 41.4513 14.48 42.8913 10.8L46.6913 1.04H53.4513L56.2513 28H50.0913L49.0913 17.56L48.5713 9.68C47.8779 11.68 46.9179 14.3067 45.6913 17.56L41.8913 27.72H38.2513L34.4913 17.56C33.8779 15.9067 33.3579 14.4267 32.9313 13.12C32.5046 11.8133 32.2246 10.9067 32.0913 10.4L31.8913 9.68C31.8913 11.5733 31.7713 14.2 31.5313 17.56L30.6913 28ZM69.1144 19.28H65.9944V28H59.8344V1.04H69.1144C72.101 1.04 74.5144 1.88 76.3544 3.56C78.221 5.24 79.1544 7.37333 79.1544 9.96C79.1544 12.92 78.181 15.2133 76.2344 16.84C74.3144 18.4667 71.941 19.28 69.1144 19.28ZM68.3944 5.96H65.9944V14.4H68.0344C71.2877 14.4 72.9144 12.92 72.9144 9.96C72.9144 7.29333 71.4077 5.96 68.3944 5.96Z" fill="#333333"/>
</svg>
