<svg width="148" height="148" viewBox="0 0 148 148" fill="none" xmlns="http://www.w3.org/2000/svg">
<g filter="url(#filter0_d)">
<path fill-rule="evenodd" clip-rule="evenodd" d="M74 108C46.3858 108 24 85.6142 24 58C24 30.3858 46.3858 8 74 8C101.614 8 124 30.3858 124 58V100C124 104.418 120.418 108 116 108H74Z" fill="#4DB282"/>
</g>
<path fill-rule="evenodd" clip-rule="evenodd" d="M82.5312 40C80.419 40 78.6645 41.5791 78.3597 43.6321L77.0769 44.9302C74.8442 47.1896 71.5562 48.5385 68.2812 48.5385H59.8438C58.0105 48.5385 56.4474 49.7282 55.8669 51.3846H55.625C52.5234 51.3846 50 53.9382 50 57.0769C50 60.2157 52.5234 62.7692 55.625 62.7692H55.8669C56.2913 63.9802 57.2409 64.9411 58.4375 65.3706V72.7308C58.4375 75.0848 60.3301 77 62.6563 77C64.9825 77 66.875 75.0848 66.875 72.7308V65.6154H68.2812C71.5561 65.6154 74.8441 66.9643 77.0769 69.2236L78.3597 70.5218C78.6645 72.5746 80.4191 74.1538 82.5313 74.1538C84.8575 74.1538 86.75 72.2387 86.75 69.8846V44.2692C86.75 41.9152 84.8575 40 82.5312 40ZM55.625 59.9231C54.0742 59.9231 52.8125 58.6463 52.8125 57.0769C52.8125 55.5076 54.0742 54.2308 55.625 54.2308V59.9231ZM62.6562 74.1538C63.4317 74.1538 64.0625 73.5155 64.0625 72.7308V65.6154H61.25V72.7308C61.25 73.5155 61.8808 74.1538 62.6562 74.1538ZM66.875 62.7692H59.8438C59.0683 62.7692 58.4375 62.1308 58.4375 61.3462V52.8077C58.4375 52.023 59.0683 51.3846 59.8438 51.3846H66.875V62.7692ZM69.6781 62.8337C72.8823 63.1285 75.9368 64.4213 78.3125 66.5021V47.6517C75.9368 49.7325 72.8823 51.0253 69.6782 51.32L69.6781 62.8337ZM83.9375 69.8846C83.9375 70.6693 83.3067 71.3077 82.5313 71.3077H82.5312C81.7558 71.3077 81.125 70.6693 81.125 69.8846V44.2692C81.125 43.4845 81.7558 42.8462 82.5313 42.8462C83.3067 42.8462 83.9375 43.4845 83.9375 44.2692V69.8846ZM94.7756 48.9553C94.2265 48.3997 93.336 48.3997 92.7868 48.9553L89.9743 51.8015C89.4252 52.3572 89.4252 53.2582 89.9743 53.814C90.5235 54.3698 91.414 54.3697 91.9631 53.814L94.7756 50.9678C95.3248 50.4121 95.3248 49.5111 94.7756 48.9553ZM92.375 57.0769H96.5938C97.3704 57.0769 98 57.7141 98 58.5C98 59.2859 97.3704 59.9231 96.5938 59.9231H92.375C91.5984 59.9231 90.9688 59.2859 90.9688 58.5C90.9688 57.7141 91.5984 57.0769 92.375 57.0769ZM91.9632 63.1861L94.7757 66.0323C95.3248 66.588 95.3248 67.489 94.7757 68.0448C94.2266 68.6005 93.336 68.6005 92.7869 68.0448L89.9744 65.1986C89.4252 64.6429 89.4252 63.7418 89.9744 63.1861C90.5236 62.6304 91.4141 62.6304 91.9632 63.1861Z" fill="white"/>
<defs>
<filter id="filter0_d" x="0" y="0" width="148" height="148" filterUnits="userSpaceOnUse" color-interpolation-filters="sRGB">
<feFlood flood-opacity="0" result="BackgroundImageFix"/>
<feColorMatrix in="SourceAlpha" type="matrix" values="0 0 0 0 0 0 0 0 0 0 0 0 0 0 0 0 0 0 127 0"/>
<feOffset dy="16"/>
<feGaussianBlur stdDeviation="12"/>
<feColorMatrix type="matrix" values="0 0 0 0 0.303864 0 0 0 0 0.234804 0 0 0 0 0 0 0 0 0.16109 0"/>
<feBlend mode="normal" in2="BackgroundImageFix" result="effect1_dropShadow"/>
<feBlend mode="normal" in="SourceGraphic" in2="effect1_dropShadow" result="shape"/>
</filter>
</defs>
</svg>
