<svg width="569" height="832" viewBox="0 0 569 832" fill="none" xmlns="http://www.w3.org/2000/svg">
<path d="M166.18 -85.1249C167.109 -86.847 167.573 -87.708 168.286 -88.3764C168.904 -88.9565 169.682 -89.4209 170.486 -89.69C171.413 -90 172.426 -90 174.453 -90H834.4C837.76 -90 839.44 -90 840.724 -89.346C841.853 -88.7708 842.771 -87.8529 843.346 -86.7239C844 -85.4404 844 -83.7603 844 -80.4V765.922C844 768.388 844 769.621 843.573 770.692C843.202 771.623 842.573 772.481 841.797 773.115C840.904 773.844 839.788 774.196 837.557 774.9C802.384 785.996 628.89 837.48 458.081 830.709C293.701 824.192 223.047 772.821 137.945 736.426C58.1927 702.32 15.5995 695.009 2.97976 613.808C-14.5147 501.24 49.7697 487.873 72.4587 357.084C92.7178 240.302 64.1158 233.505 88.876 118.666C109.264 24.1053 154.702 -63.8416 166.18 -85.1249Z" fill="#FFFAEA"/>
</svg>
