<svg width="462" height="541" viewBox="0 0 462 541" fill="none" xmlns="http://www.w3.org/2000/svg">
<path d="M0 221C0 164.995 0 136.992 10.8993 115.601C20.4867 96.7847 35.7847 81.4867 54.6009 71.8993C75.9921 61 103.995 61 160 61H449.2C453.68 61 455.921 61 457.632 61.8719C459.137 62.6389 460.361 63.8628 461.128 65.3681C462 67.0794 462 69.3196 462 73.8V528.2C462 532.68 462 534.921 461.128 536.632C460.361 538.137 459.137 539.361 457.632 540.128C455.921 541 453.68 541 449.2 541H12.8C8.31958 541 6.07937 541 4.36808 540.128C2.86278 539.361 1.63893 538.137 0.871948 536.632C0 534.921 0 532.68 0 528.2V221Z" fill="#FBD34B"/>
<mask id="mask0" mask-type="alpha" maskUnits="userSpaceOnUse" x="0" y="0" width="462" height="541">
<path d="M0 160C0 103.995 0 75.9921 10.8993 54.6009C20.4867 35.7847 35.7847 20.4867 54.6009 10.8993C75.9921 0 103.995 0 160 0H449.2C453.68 0 455.921 0 457.632 0.871948C459.137 1.63893 460.361 2.86278 461.128 4.36808C462 6.07937 462 8.31958 462 12.8V528.2C462 532.68 462 534.921 461.128 536.632C460.361 538.137 459.137 539.361 457.632 540.128C455.921 541 453.68 541 449.2 541H12.8C8.31958 541 6.07937 541 4.36808 540.128C2.86278 539.361 1.63893 538.137 0.871948 536.632C0 534.921 0 532.68 0 528.2V160Z" fill="white"/>
</mask>
<g mask="url(#mask0)">
</g>
</svg>
