<svg width="148" height="148" viewBox="0 0 148 148" fill="none" xmlns="http://www.w3.org/2000/svg">
<g filter="url(#filter0_d)">
<path fill-rule="evenodd" clip-rule="evenodd" d="M74 108C46.3858 108 24 85.6142 24 58C24 30.3858 46.3858 8 74 8C101.614 8 124 30.3858 124 58V100C124 104.418 120.418 108 116 108H74Z" fill="#4DB282"/>
</g>
<path fill-rule="evenodd" clip-rule="evenodd" d="M55.9685 46.7V44H96V76H55.9684V73.2706H52.9352C51.1974 73.2706 49.7492 72.0162 49.4916 70.2882L48.0386 60.5376C47.888 59.5275 48.1823 58.5047 48.846 57.7314C49.4964 56.9735 50.4355 56.5342 51.4292 56.519L51.4289 56.5176H51.4821H52.0905C51.4022 55.4959 50.9998 54.2648 50.9998 52.9411C50.9998 49.8974 53.128 47.3448 55.9685 46.7ZM53.8123 52.9412C53.8123 54.412 54.7016 55.678 55.9685 56.2266V49.6557C54.7016 50.2043 53.8123 51.4703 53.8123 52.9412ZM55.9685 59.3412V64.6051L54.8832 59.3412H55.9685ZM52.9353 70.447H55.9686V67.8116H53.7577L52.0112 59.341H51.4822C51.2166 59.341 51.0515 59.4872 50.9768 59.5744C50.9011 59.6626 50.78 59.8508 50.8202 60.1199L52.2732 69.8704C52.3231 70.2046 52.6014 70.4471 52.9353 70.4471V70.447ZM93.1875 73.1766H58.781V46.8235H93.1875V73.1766ZM64.4661 51.9247C64.536 51.9699 64.6061 51.9976 64.6761 52.0075C64.7461 52.0176 64.7962 52.0226 64.8262 52.0226V54.0253C64.5262 54.0253 64.2011 53.9953 63.8512 53.9349C63.5011 53.8748 63.1812 53.7694 62.8912 53.6188C62.6011 53.4681 62.3588 53.2626 62.1636 53.0014C61.9686 52.7404 61.8711 52.4042 61.8711 51.9924V49.8541H64.1811V51.4202C64.191 51.5609 64.2236 51.6687 64.2786 51.744C64.3335 51.8193 64.3961 51.8795 64.4661 51.9247ZM68.4111 52.0075C68.3411 51.9976 68.271 51.9699 68.2012 51.9247C68.1311 51.8795 68.0686 51.8193 68.0137 51.744C67.9586 51.6687 67.926 51.5609 67.9162 51.4202V49.8541H65.6061V51.9924C65.6061 52.4042 65.7036 52.7404 65.8986 53.0014C66.0937 53.2626 66.3361 53.4681 66.6262 53.6188C66.9162 53.7694 67.2361 53.8748 67.5862 53.9349C67.9361 53.9953 68.2612 54.0253 68.5612 54.0253V52.0226C68.5312 52.0226 68.4811 52.0176 68.4111 52.0075ZM85.335 66.2606C85.6249 66.4113 85.8675 66.6198 86.0627 66.8856C86.2577 67.1516 86.3552 67.4856 86.3552 67.887V70.0253H84.0451V68.4592C84.0351 68.329 84.0024 68.2235 83.9476 68.143C83.8926 68.0628 83.8299 67.9999 83.7601 67.9548C83.6901 67.9096 83.6199 67.882 83.5501 67.8719C83.4801 67.8621 83.4301 67.857 83.4001 67.857V65.8541C83.7001 65.8541 84.0249 65.8842 84.3751 65.9445C84.725 66.0046 85.0448 66.1101 85.335 66.2606ZM89.7976 66.8856C89.6025 66.6198 89.3599 66.4113 89.07 66.2606C88.7797 66.1101 88.4599 66.0046 88.11 65.9445C87.7598 65.8842 87.435 65.8541 87.135 65.8541V67.857C87.165 67.857 87.215 67.8621 87.2851 67.8719C87.3549 67.882 87.425 67.9096 87.495 67.9548C87.5648 67.9999 87.6275 68.0628 87.6825 68.143C87.7373 68.2235 87.77 68.329 87.78 68.4592V70.0253H90.0901V67.887C90.0901 67.4856 89.9926 67.1516 89.7976 66.8856ZM90.0903 51.906H73.5002V54.7295H90.0903V51.906ZM61.8714 58.4943H90.0904V61.3178H61.8714V58.4943ZM78.4615 65.0825H61.8714V67.906H78.4615V65.0825Z" fill="white"/>
<defs>
<filter id="filter0_d" x="0" y="0" width="148" height="148" filterUnits="userSpaceOnUse" color-interpolation-filters="sRGB">
<feFlood flood-opacity="0" result="BackgroundImageFix"/>
<feColorMatrix in="SourceAlpha" type="matrix" values="0 0 0 0 0 0 0 0 0 0 0 0 0 0 0 0 0 0 127 0" result="hardAlpha"/>
<feOffset dy="16"/>
<feGaussianBlur stdDeviation="12"/>
<feColorMatrix type="matrix" values="0 0 0 0 0.303864 0 0 0 0 0.234804 0 0 0 0 0 0 0 0 0.16109 0"/>
<feBlend mode="normal" in2="BackgroundImageFix" result="effect1_dropShadow"/>
<feBlend mode="normal" in="SourceGraphic" in2="effect1_dropShadow" result="shape"/>
</filter>
</defs>
</svg>
