<svg width="148" height="148" viewBox="0 0 148 148" fill="none" xmlns="http://www.w3.org/2000/svg">
<g filter="url(#filter0_d)">
<path fill-rule="evenodd" clip-rule="evenodd" d="M74 108C46.3858 108 24 85.6142 24 58C24 30.3858 46.3858 8 74 8C101.614 8 124 30.3858 124 58V100C124 104.418 120.418 108 116 108H74Z" fill="#4DB282"/>
</g>
<path fill-rule="evenodd" clip-rule="evenodd" d="M96.6025 42.6004C96.5996 42.6004 96.5967 42.6 96.5938 42.6H83.8438V41.2C83.8438 38.8842 81.9512 37 79.625 37H68.375C66.0488 37 64.1562 38.8842 64.1562 41.2V42.6H51.4062C50.6233 42.6 50 43.2387 50 44V74.8C50 77.1158 51.8926 79 54.2188 79H93.7812C96.1074 79 98 77.1158 98 74.8V44.0295V44.0241C97.9462 43.1046 97.3782 42.6055 96.6025 42.6004ZM66.9688 41.2C66.9688 40.4282 67.5997 39.8 68.375 39.8H79.625C80.4003 39.8 81.0312 40.4282 81.0312 41.2V42.6H66.9688V41.2ZM90.2755 58.4426L94.6426 45.4H53.3574L57.7245 58.4426C57.916 59.0154 58.4521 59.4 59.0582 59.4H66.9688V58C66.9688 57.2267 67.5983 56.6 68.375 56.6H79.625C80.4017 56.6 81.0312 57.2267 81.0312 58V59.4H88.9418C89.5479 59.4 90.084 59.0154 90.2755 58.4426ZM78.2188 59.4V62.2H69.7812V59.4H78.2188ZM93.7812 76.2C94.5565 76.2 95.1875 75.5718 95.1875 74.8V52.6271L92.9437 59.3282C92.3688 61.0461 90.7604 62.2 88.9418 62.2H81.0312V63.6C81.0312 64.3733 80.4017 65 79.625 65H68.375C67.5983 65 66.9688 64.3733 66.9688 63.6V62.2H59.0582C57.2396 62.2 55.6312 61.0461 55.0563 59.3282L52.8125 52.6271V74.8C52.8125 75.5718 53.4435 76.2 54.2188 76.2H93.7812Z" fill="white"/>
<defs>
<filter id="filter0_d" x="0" y="0" width="148" height="148" filterUnits="userSpaceOnUse" color-interpolation-filters="sRGB">
<feFlood flood-opacity="0" result="BackgroundImageFix"/>
<feColorMatrix in="SourceAlpha" type="matrix" values="0 0 0 0 0 0 0 0 0 0 0 0 0 0 0 0 0 0 127 0" result="hardAlpha"/>
<feOffset dy="16"/>
<feGaussianBlur stdDeviation="12"/>
<feColorMatrix type="matrix" values="0 0 0 0 0.303864 0 0 0 0 0.234804 0 0 0 0 0 0 0 0 0.16109 0"/>
<feBlend mode="normal" in2="BackgroundImageFix" result="effect1_dropShadow"/>
<feBlend mode="normal" in="SourceGraphic" in2="effect1_dropShadow" result="shape"/>
</filter>
</defs>
</svg>
