<svg width="24" height="22" viewBox="0 0 24 22" fill="none" xmlns="http://www.w3.org/2000/svg">
<path fill-rule="evenodd" clip-rule="evenodd" d="M22 11C22 10.421 21.942 9.857 21.856 9.303L19.99 11.205C19.879 16.072 15.894 20 11 20C6.038 20 2 15.962 2 11C2 6.038 6.038 2 11 2C12.8 2 14.474 2.537 15.882 3.45L17.304 1.993C15.518 0.741 13.347 0 11 0C4.925 0 0 4.925 0 11C0 17.075 4.925 22 11 22C17.075 22 22 17.075 22 11ZM11.5 10.806L20.904 1.167L24 4.263L11.5 17L4.562 10.29L7.657 7.192L11.5 10.806Z" fill="#4DB282"/>
</svg>
