<svg width="32" height="27" viewBox="0 0 32 27" fill="none" xmlns="http://www.w3.org/2000/svg">
<path fill-rule="evenodd" clip-rule="evenodd" d="M13 7.42489H19C20.2866 7.42489 21.3333 6.36518 21.3333 5.06248V4.72507H28.3333C29.252 4.72507 30 5.48222 30 6.4124V23.2874C30 24.2176 29.252 24.975 28.3333 24.975H3.66675C2.74805 24.975 2 24.2176 2 23.2874V6.4124C2 5.48222 2.74805 4.72507 3.66675 4.72507H10.6667V5.06248C10.6667 6.36518 11.7134 7.42489 13 7.42489ZM19.3333 5.06248V3.71257V2.36241C19.3333 2.17628 19.1841 2.02499 19 2.02499H13C12.8159 2.02499 12.6667 2.17628 12.6667 2.36241V3.71257V5.06248C12.6667 5.24887 12.8159 5.3999 13 5.3999H19C19.1841 5.3999 19.3333 5.24887 19.3333 5.06248ZM10.6667 2.36241V2.70007H3.66675C1.64404 2.70007 0 4.36442 0 6.4124V23.2874C0 25.3354 1.64404 27 3.66675 27H28.3333C30.356 27 32 25.3354 32 23.2874V6.4124C32 4.36442 30.356 2.70007 28.3333 2.70007H21.3333V2.36241C21.3333 1.05971 20.2866 0 19 0H13C11.7134 0 10.6667 1.05971 10.6667 2.36241ZM10 16.2C8.1626 16.2 6.66675 14.6852 6.66675 12.825C6.66675 10.9647 8.1626 9.44989 10 9.44989C11.8374 9.44989 13.3333 10.9647 13.3333 12.825C13.3333 14.6852 11.8374 16.2 10 16.2ZM10 11.4749C9.26538 11.4749 8.66675 12.081 8.66675 12.825C8.66675 13.5688 9.26538 14.175 10 14.175C10.7346 14.175 11.3333 13.5688 11.3333 12.825C11.3333 12.081 10.7346 11.4749 10 11.4749ZM15 22.95C14.448 22.95 14 22.4964 14 21.9375V21.2624C14 20.3323 13.252 19.5749 12.3333 19.5749H7.66675C6.74805 19.5749 6 20.3323 6 21.2624V21.9375C6 22.4964 5.552 22.95 5 22.95C4.448 22.95 4 22.4964 4 21.9375V21.2624C4 19.2145 5.64404 17.5499 7.66675 17.5499H12.3333C14.356 17.5499 16 19.2145 16 21.2624V21.9375C16 22.4964 15.552 22.95 15 22.95ZM19.6667 12.15H27C27.552 12.15 28 11.6964 28 11.1375C28 10.5786 27.552 10.125 27 10.125H19.6667C19.1147 10.125 18.6667 10.5786 18.6667 11.1375C18.6667 11.6964 19.1147 12.15 19.6667 12.15ZM27 17.5499H19.6667C19.1147 17.5499 18.6667 17.0963 18.6667 16.5374C18.6667 15.9785 19.1147 15.5249 19.6667 15.5249H27C27.552 15.5249 28 15.9785 28 16.5374C28 17.0963 27.552 17.5499 27 17.5499ZM19.6667 22.95H27C27.552 22.95 28 22.4964 28 21.9375C28 21.3786 27.552 20.925 27 20.925H19.6667C19.1147 20.925 18.6667 21.3786 18.6667 21.9375C18.6667 22.4964 19.1147 22.95 19.6667 22.95Z" fill="#333333"/>
</svg>
