<svg width="32" height="29" viewBox="0 0 32 29" fill="none" xmlns="http://www.w3.org/2000/svg">
<path fill-rule="evenodd" clip-rule="evenodd" d="M30.7475 26.5833H2.42425V1.20834C2.42425 0.540929 1.88162 0 1.21212 0C0.542624 0 0 0.540929 0 1.20834V27.7917C0 28.4591 0.542624 29 1.21212 29H30.7475C31.417 29 31.9596 28.4591 31.9596 27.7917C31.9596 27.1243 31.417 26.5833 30.7475 26.5833ZM27.8939 5.59863H21.697C21.0275 5.59863 20.4848 5.0577 20.4848 4.3903C20.4848 3.72289 21.0275 3.18196 21.697 3.18196H30.7878C31.4573 3.18196 32 3.72289 32 4.3903V4.41966C32 4.42692 32 4.43419 32 4.44146V13.4528C32 14.1202 31.4574 14.6615 30.7879 14.6615C30.1184 14.6615 29.5758 14.1202 29.5758 13.4532V7.33955L21.5826 15.2757C21.1083 15.7458 20.3434 15.7454 19.8703 15.2737L17.2121 12.6243L7.28118 22.5237C7.04486 22.7598 6.73411 22.8778 6.42424 22.8778C6.11393 22.8778 5.80362 22.7598 5.56724 22.5237C5.09368 22.0521 5.09368 21.2868 5.56724 20.8152L16.3551 10.061C16.8287 9.58887 17.5955 9.5893 18.069 10.061L20.7288 12.7124L27.8939 5.59863Z" fill="#333333"/>
</svg>
