<svg width="148" height="148" viewBox="0 0 148 148" fill="none" xmlns="http://www.w3.org/2000/svg">
<g filter="url(#filter0_d)">
<path fill-rule="evenodd" clip-rule="evenodd" d="M74 108C46.3858 108 24 85.6142 24 58C24 30.3858 46.3858 8 74 8C101.614 8 124 30.3858 124 58V100C124 104.418 120.418 108 116 108H74Z" fill="#4DB282"/>
</g>
<path fill-rule="evenodd" clip-rule="evenodd" d="M95.7955 37.4469C95.723 36.7932 95.207 36.2768 94.5529 36.2043C83.4237 34.9684 73.9367 39.42 66.1981 47.3855C63.9835 49.6651 62.0626 52.0781 60.423 54.4068C57.648 54.2941 54.5712 55.5494 52.3899 57.7306L48.4119 61.7084C47.9618 62.1584 47.8702 62.855 48.1885 63.4061C48.5067 63.9573 49.1553 64.2257 49.7706 64.0613C50.6935 63.8133 52.1933 63.5251 53.634 63.4581C54.1607 63.4336 54.5983 63.4413 54.962 63.4691C54.5667 64.2294 54.2129 64.9342 53.9231 65.5116L53.923 65.5117L53.9227 65.5123L53.9227 65.5124L53.9226 65.5125C53.5692 66.2167 53.3109 66.7312 53.1883 66.9258C52.839 67.4817 52.9199 68.205 53.3843 68.6693L55.6861 70.9709C52.3361 75.5394 52.2808 77.8792 52.2925 78.2106C52.3171 78.9126 52.8646 79.5703 53.7714 79.5703C54.5566 79.5703 56.8086 79.2371 60.9082 76.1928L63.3294 78.6138C63.7971 79.0814 64.5277 79.1598 65.0844 78.8024C65.3136 78.655 65.8917 78.3607 66.6663 77.9664C67.1716 77.7092 67.7605 77.4094 68.3908 77.0801C68.4172 78.2699 68.2557 80.0171 67.9052 82.3854C67.7059 83.7286 69.339 84.5372 70.2908 83.5858L74.2689 79.608C76.3202 77.5569 77.5097 74.5104 77.4218 71.6525C79.8752 69.9382 82.4275 67.916 84.8106 65.5792C92.7008 57.8423 97.0158 48.4277 95.7955 37.4469ZM93.1052 38.8941C93.3297 41.9264 93.0901 44.8656 92.3925 47.7099C90.6598 47.1643 88.966 46.0924 87.4362 44.5631C85.9009 43.0276 84.8268 41.3269 84.2833 39.5881C87.1267 38.9007 90.068 38.6678 93.1052 38.8941ZM54.3786 59.7195L53.4506 60.6478C54.4368 60.5991 55.4608 60.6368 56.3819 60.8401C56.9782 59.7792 57.6542 58.6296 58.4127 57.4259C56.9609 57.7892 55.5011 58.5974 54.3786 59.7195ZM56.3262 66.994L56.3267 66.9931L56.3267 66.9931L56.3267 66.993L56.3267 66.993C56.5949 66.4589 56.9344 65.7826 57.4601 64.7893L59.3114 66.6409C58.6226 67.3799 58.0007 68.0819 57.4403 68.7473L56.112 67.4194C56.1791 67.2871 56.2492 67.1474 56.3251 66.9963L56.3262 66.994ZM66.2176 65.6437C64.9969 65.67 64.0143 65.8572 62.9896 66.8815C58.6676 71.2031 56.7126 74.2321 55.8296 76.0562C57.6194 75.186 60.6123 73.2363 64.9786 68.8704C66 67.849 66.1908 66.8331 66.2176 65.6437ZM64.5713 75.8782L63.121 74.4276C63.7832 73.8651 64.4831 73.2415 65.2214 72.55L67.1921 74.5206C66.2947 74.9997 65.7595 75.2719 65.2547 75.5287L65.2544 75.5288L65.2541 75.529L65.2538 75.5291C65.03 75.6429 64.8122 75.7537 64.5713 75.8782ZM71.1537 78.7452L72.2795 77.6191C73.3295 76.5696 74.0836 75.126 74.4191 73.6392C73.242 74.3778 72.1187 75.0381 71.0845 75.6204C71.2134 76.3872 71.2449 77.3811 71.1537 78.7452ZM69.7525 73.1034L67.2309 70.5817C69.0318 68.6003 69.0298 66.6885 69.0275 64.4798L69.0273 64.2393C69.0273 63.4625 68.3978 62.833 67.621 62.833C67.5042 62.833 67.3877 62.8327 67.2713 62.8323C65.2368 62.8264 63.2698 62.8207 61.2781 64.6296L58.8701 62.2218C65.4455 50.6924 73.046 43.393 81.5856 40.3872C82.2616 42.5746 83.5775 44.6821 85.4475 46.552C87.3087 48.4134 89.4065 49.7259 91.5845 50.4045C88.5609 58.8966 81.2629 66.4918 69.7525 73.1034ZM83.4585 48.5405C80.7165 45.7991 76.255 45.7991 73.5133 48.5405C70.7717 51.2823 70.7717 55.7435 73.5133 58.485C76.255 61.2264 80.7165 61.2268 83.4585 58.485C86.2001 55.7435 86.2001 51.2823 83.4585 48.5405ZM81.4695 56.4961C79.8243 58.1411 77.1471 58.1411 75.5024 56.4961C73.8572 54.8511 73.8572 52.1744 75.5024 50.5294C77.1471 48.8847 79.824 48.8844 81.4695 50.5294C83.1146 52.1744 83.1146 54.8511 81.4695 56.4961Z" fill="white"/>
<defs>
<filter id="filter0_d" x="0" y="0" width="148" height="148" filterUnits="userSpaceOnUse" color-interpolation-filters="sRGB">
<feFlood flood-opacity="0" result="BackgroundImageFix"/>
<feColorMatrix in="SourceAlpha" type="matrix" values="0 0 0 0 0 0 0 0 0 0 0 0 0 0 0 0 0 0 127 0" result="hardAlpha"/>
<feOffset dy="16"/>
<feGaussianBlur stdDeviation="12"/>
<feColorMatrix type="matrix" values="0 0 0 0 0.303864 0 0 0 0 0.234804 0 0 0 0 0 0 0 0 0.16109 0"/>
<feBlend mode="normal" in2="BackgroundImageFix" result="effect1_dropShadow"/>
<feBlend mode="normal" in="SourceGraphic" in2="effect1_dropShadow" result="shape"/>
</filter>
</defs>
</svg>
