<svg width="64" height="64" viewBox="0 0 64 64" fill="none" xmlns="http://www.w3.org/2000/svg">
<path fill-rule="evenodd" clip-rule="evenodd" d="M32 0C20.9995 0 12.0498 8.94971 12.0498 19.9502C12.0498 26.2812 15.0347 32.189 20.083 35.9507V37.6167C18.8535 38.6973 18.0752 40.2798 18.0752 42.0415C18.0752 43.5928 18.6787 45.0054 19.6621 46.0586C18.6787 47.1118 18.0752 48.5239 18.0752 50.0752C18.0752 52.7178 19.8237 54.9595 22.2251 55.7036C22.9976 60.4028 27.0854 64 32 64C36.9146 64 41.0029 60.4028 41.7754 55.7036C44.1763 54.959 45.9253 52.7178 45.9253 50.0747C45.9253 48.5239 45.3218 47.1113 44.3384 46.0581C45.3218 45.0049 45.9253 43.5928 45.9253 42.0415C45.9253 40.2798 45.147 38.6973 43.917 37.6162V35.9507C48.9653 32.189 51.9502 26.2812 51.9502 19.9502C51.9502 8.94971 43.0005 0 32 0ZM40.0337 39.8999C41.2144 39.8999 42.1753 40.8608 42.1753 42.0415C42.1753 43.2227 41.2144 44.1836 40.0337 44.1836H23.9668C22.7856 44.1836 21.8247 43.2227 21.8247 42.0415C21.8247 40.8608 22.7856 39.8999 23.9668 39.8999H40.0337ZM26.1333 55.9668C26.9287 58.4482 29.2578 60.25 32 60.25C34.7422 60.25 37.0718 58.4487 37.8667 55.9668H26.1333ZM40.0337 52.2168H23.9668C22.7856 52.2168 21.8247 51.2559 21.8247 50.0752C21.8247 48.894 22.7856 47.9336 23.9668 47.9336H40.0337C41.2144 47.9336 42.1753 48.894 42.1753 50.0752C42.1753 51.2559 41.2144 52.2168 40.0337 52.2168ZM40.167 34.9805C40.167 34.355 40.479 33.7705 40.999 33.4224C45.5078 30.4038 48.2002 25.3677 48.2002 19.9502C48.2002 11.0171 40.9326 3.75 32 3.75C23.0674 3.75 15.7998 11.0171 15.7998 19.9502C15.7998 25.3677 18.4922 30.4038 23.001 33.4224C23.521 33.7705 23.833 34.355 23.833 34.9805V36.1533L23.8772 36.1521H23.8774C23.9071 36.1513 23.9368 36.1504 23.9668 36.1504H26.1084V28.7603L23.416 26.0679C22.6836 25.3354 22.6836 24.1484 23.416 23.416C24.1484 22.6841 25.3354 22.6841 26.0674 23.416L29.3091 26.6577C29.6606 27.0093 29.8584 27.4863 29.8584 27.9834V36.1499H34.1416V27.9834C34.1416 27.4858 34.3394 27.0093 34.6909 26.6577L37.9326 23.416C38.6646 22.6836 39.8521 22.6836 40.584 23.416C41.3164 24.1484 41.3164 25.3354 40.584 26.0679L37.8916 28.7603V36.1499H40.0337C40.0615 36.1499 40.0892 36.1509 40.117 36.1518C40.1337 36.1524 40.1503 36.153 40.167 36.1533V34.9805ZM7.7666 19.9502C7.7666 18.9146 6.92725 18.0752 5.8916 18.0752H1.875C0.839355 18.0752 0 18.9146 0 19.9502C0 20.9854 0.839355 21.8252 1.875 21.8252H5.8916C6.92725 21.8252 7.7666 20.9854 7.7666 19.9502ZM58.1084 18.0752H62.125C63.1606 18.0752 64 18.9146 64 19.9502C64 20.9854 63.1606 21.8252 62.125 21.8252H58.1084C57.0732 21.8252 56.2334 20.9854 56.2334 19.9502C56.2334 18.9146 57.0732 18.0752 58.1084 18.0752ZM8.45166 31.3804L4.97314 33.3887C4.07666 33.9067 3.76953 35.0532 4.28711 35.9502C4.63428 36.5518 5.26465 36.8877 5.9126 36.8877C6.23047 36.8877 6.55322 36.8071 6.84814 36.6362L10.3267 34.6284C11.2236 34.1104 11.5308 32.9639 11.0132 32.0669C10.4956 31.1699 9.34863 30.8628 8.45166 31.3804ZM55.5479 8.52002C55.2524 8.69043 54.9302 8.77148 54.6123 8.77148C53.9644 8.77148 53.334 8.43506 52.9868 7.8335C52.4688 6.93701 52.7764 5.79004 53.6729 5.27246L57.1519 3.26416C58.0483 2.74609 59.1948 3.05322 59.7129 3.9502C60.231 4.84717 59.9233 5.99365 59.0269 6.51123L55.5479 8.52002ZM59.0264 33.3887L55.5479 31.3809C54.6509 30.8633 53.5039 31.1704 52.9863 32.0674C52.4688 32.9639 52.7764 34.1108 53.6729 34.6284L57.1519 36.6362C57.4468 36.8066 57.769 36.8877 58.0874 36.8877C58.7354 36.8877 59.3657 36.5513 59.7129 35.9497C60.231 35.0532 59.9233 33.9062 59.0264 33.3887ZM6.84863 3.26416L10.3271 5.27197C11.2236 5.79004 11.5312 6.93652 11.0137 7.8335C10.666 8.43506 10.0361 8.77148 9.3877 8.77148C9.06982 8.77148 8.74756 8.69043 8.45215 8.52002L4.97363 6.51172C4.07715 5.99414 3.76953 4.84766 4.2876 3.95068C4.80518 3.05371 5.95166 2.74609 6.84863 3.26416Z" fill="#4DB282"/>
</svg>
