<svg width="64" height="64" viewBox="0 0 64 64" fill="none" xmlns="http://www.w3.org/2000/svg">
<path fill-rule="evenodd" clip-rule="evenodd" d="M63.4507 60.7993L55.9141 53.2622C61.1406 47.3984 64 39.9194 64 32C64 25.8394 62.2666 19.9194 58.9741 14.7783L63.4507 10.3018C63.9102 9.8418 64.0991 9.17725 63.9497 8.54492C63.8003 7.9126 63.3345 7.40234 62.7178 7.19727L58.2822 5.71826L56.8037 1.28223C56.5977 0.666016 56.0879 0.199707 55.4556 0.050293C54.8232 -0.0986328 54.1587 0.0898437 53.6987 0.549316L49.2222 5.02637C44.0806 1.73389 38.1602 0 32 0C23.4526 0 15.4165 3.32861 9.37256 9.37256C3.32861 15.4165 0 23.4526 0 32C0 39.9194 2.85938 47.3984 8.08643 53.2622L0.549316 60.7993C-0.183105 61.5312 -0.183105 62.7188 0.549316 63.4507C0.915527 63.8169 1.39502 64 1.875 64C2.35498 64 2.83496 63.8169 3.20068 63.4507L10.7378 55.9136C16.6016 61.1411 24.0806 64 32 64C39.9194 64 47.3984 61.1406 53.2622 55.9136L60.7993 63.4507C61.1655 63.8169 61.645 64 62.125 64C62.605 64 63.085 63.8169 63.4507 63.4507C64.1831 62.7188 64.1831 61.5317 63.4507 60.7993ZM54.2056 5.34619L55.021 7.79297C55.2075 8.35303 55.647 8.79248 56.2065 8.979L58.6538 9.79492L54.5181 13.9307L51.1816 12.8184L50.0693 9.48193L54.2056 5.34619ZM32 40.1665C36.5029 40.1665 40.167 36.5029 40.167 32C40.167 30.4263 39.7183 28.9561 38.9438 27.708L33.3257 33.3257C32.96 33.6919 32.48 33.875 32 33.875C31.52 33.875 31.04 33.6919 30.6743 33.3257C29.9419 32.5938 29.9419 31.4067 30.6743 30.6743L36.292 25.0562C35.0439 24.2817 33.5737 23.8335 32 23.8335C27.4971 23.8335 23.8335 27.4971 23.8335 32C23.8335 36.5029 27.4971 40.1665 32 40.1665ZM38.9922 22.3564C37.0269 20.9277 34.6104 20.0835 32 20.0835C25.4292 20.0835 20.0835 25.4292 20.0835 32C20.0835 38.5708 25.4292 43.9165 32 43.9165C38.5708 43.9165 43.917 38.5708 43.917 32C43.917 29.3896 43.0728 26.9736 41.6436 25.0078L46.1265 20.5254C48.6768 23.6592 50.2085 27.6538 50.2085 32C50.2085 42.04 42.04 50.2085 32 50.2085C21.96 50.2085 13.792 42.04 13.792 32C13.792 21.96 21.96 13.7915 32 13.7915C36.3462 13.7915 40.3408 15.3232 43.4751 17.8735L38.9922 22.3564ZM32 3.75C16.4229 3.75 3.75 16.4229 3.75 32C3.75 47.5771 16.4229 60.25 32 60.25C47.5771 60.25 60.25 47.5771 60.25 32C60.25 26.8374 58.8726 21.8667 56.248 17.4946C55.9038 17.7915 55.4688 17.9512 55.0244 17.9512C54.8257 17.9512 54.626 17.9194 54.4316 17.855L50.2056 16.4458L48.7881 17.8633C52.0122 21.686 53.9585 26.6196 53.9585 32C53.9585 44.1079 44.1079 53.9585 32 53.9585C19.8921 53.9585 10.042 44.1079 10.042 32C10.042 19.8921 19.8921 10.0415 32 10.0415C37.3804 10.0415 42.314 11.9878 46.1367 15.2119L47.5542 13.7944L46.145 9.56885C45.9351 8.93896 46.0747 8.24902 46.5039 7.75146C42.1323 5.12744 37.1621 3.75 32 3.75Z" fill="#4DB282"/>
</svg>
