<svg width="56" height="64" viewBox="0 0 56 64" fill="none" xmlns="http://www.w3.org/2000/svg">
<path fill-rule="evenodd" clip-rule="evenodd" d="M29.8567 0C15.5478 0 3.88684 11.4795 3.71532 25.6567L0.603013 34.6758C-0.251608 37.1533 -0.195583 39.334 0.756834 40.6592C1.32789 41.4531 2.20905 41.9082 3.17523 41.9082H3.71336V45.0542C3.71336 48.8564 6.82714 51.9497 10.654 51.9497C12.4001 51.9497 13.8204 53.3613 13.8204 55.0957V57.104C13.8204 60.9062 16.9337 64 20.7606 64H34.9102C38.7371 64 41.8508 60.9062 41.8508 57.104V49.0562C45.8591 46.998 49.2638 43.9473 51.748 40.1758C54.5296 35.9526 56 31.0425 56 25.9746C56 11.6523 44.2722 0 29.8567 0ZM39.1759 46.1812C38.5056 46.4868 38.0761 47.1528 38.0761 47.8853V57.104C38.0761 58.8389 36.6558 60.25 34.9102 60.25H20.7606C19.0149 60.25 17.5947 58.8389 17.5947 57.104V55.0957C17.5947 51.2935 14.4809 48.2002 10.654 48.2002C8.90792 48.2002 7.48764 46.7886 7.48764 45.0542V40.0332C7.48764 38.998 6.64285 38.1582 5.6005 38.1582H3.78462C3.75267 37.7397 3.79789 36.981 4.17335 35.8921L7.38592 26.583C7.45324 26.3872 7.48764 26.1816 7.48764 25.9751C7.48764 13.7202 17.5224 3.75 29.8567 3.75C42.1909 3.75 52.2257 13.7202 52.2257 25.9751C52.2257 34.6338 47.1034 42.5654 39.1759 46.1812ZM45.8011 22.2388C45.5789 21.5601 44.9882 21.0654 44.2776 20.9629L35.4827 19.6934L31.5492 11.7749C31.2312 11.1348 30.5752 10.7295 29.8567 10.7295C29.1382 10.7295 28.4826 11.1348 28.1646 11.7749L24.2311 19.6934L15.4363 20.9629C14.7251 21.0654 14.1349 21.5601 13.9128 22.2388C13.6906 22.918 13.8759 23.6631 14.39 24.1611L20.7542 30.3252L19.2518 39.0283C19.1304 39.7319 19.4214 40.4429 20.0027 40.8623C20.5836 41.2817 21.3542 41.3369 21.9901 41.0049L29.8567 36.896L37.7232 41.0049C37.9994 41.1494 38.3012 41.2207 38.6014 41.2207H38.6088C39.6487 41.2178 40.491 40.3794 40.491 39.3457C40.491 39.2017 40.4748 39.0615 40.4438 38.9268L38.9592 30.3252L45.3234 24.1611C45.8379 23.6631 46.0227 22.918 45.8011 22.2388ZM35.6139 28.3276C35.1692 28.7583 34.9662 29.3789 35.0714 29.9873L36.0951 35.918L30.7349 33.1177C30.4597 32.9741 30.1584 32.9023 29.8567 32.9023C29.5554 32.9023 29.2537 32.9741 28.9785 33.1177L23.6183 35.918L24.642 29.9873C24.7471 29.3789 24.5442 28.7583 24.0994 28.3276L19.7629 24.1279L25.7556 23.2627C26.3704 23.1738 26.9016 22.7905 27.1768 22.2368L29.8567 16.8413L32.537 22.2368C32.8122 22.7905 33.3435 23.1738 33.9583 23.2627L39.9509 24.1279L35.6139 28.3276Z" fill="#4DB282"/>
</svg>
