<svg width="64" height="64" viewBox="0 0 64 64" fill="none" xmlns="http://www.w3.org/2000/svg">
<path fill-rule="evenodd" clip-rule="evenodd" d="M63.6318 18.834L50.2427 0.758789C49.8887 0.281738 49.3301 0 48.7358 0C48.1416 0 47.5825 0.281738 47.2295 0.758789L33.8403 18.834C33.4189 19.4028 33.354 20.1611 33.6729 20.7935C33.9912 21.4258 34.6392 21.8252 35.3472 21.8252H40.1665V30.8877C39.2227 30.4014 38.1538 30.125 37.0205 30.125H33.6733C29.8711 30.125 26.7778 33.2183 26.7778 37.0205V40.9292C25.834 40.4429 24.7647 40.1665 23.6318 40.1665H20.2847C16.4824 40.1665 13.3892 43.2603 13.3892 47.0625V50.9707C12.4448 50.4849 11.376 50.208 10.2432 50.208H6.89551C3.09326 50.208 0 53.3018 0 57.104V62.125C0 63.1606 0.839356 64 1.875 64H55.4302C56.4658 64 57.3052 63.1606 57.3052 62.125V21.8252H62.125C62.833 21.8252 63.481 21.4258 63.7993 20.7935C64.1182 20.1611 64.0532 19.4028 63.6318 18.834ZM3.75 57.104C3.75 55.3696 5.16113 53.958 6.89551 53.958H10.2427C11.9775 53.958 13.3887 55.3696 13.3887 57.104V60.25H3.75V57.104ZM17.1387 47.0625V57.104V60.25H26.7773V47.0625C26.7773 45.3276 25.3662 43.9165 23.6318 43.9165H20.2847C18.5498 43.9165 17.1387 45.3276 17.1387 47.0625ZM30.5278 47.0625V37.0205C30.5278 35.2861 31.939 33.875 33.6733 33.875H37.0205C38.7549 33.875 40.1665 35.2861 40.1665 37.0205V60.25H30.5278V47.0625ZM53.5552 19.9502C53.5552 18.9146 54.3945 18.0752 55.4302 18.0752H58.4028L48.7358 5.0249L39.0693 18.0752H42.0415C43.0767 18.0752 43.9165 18.9146 43.9165 19.9502V60.25H53.5552V19.9502Z" fill="#4DB282"/>
</svg>
